<svg xmlns="http://www.w3.org/2000/svg" width="1400" height="900" viewBox="0 0 1400 900">
  <rect width="1400" height="900" fill="#f6f8fb"/>
  <text x="70" y="80" font-family="Arial, sans-serif" font-size="34" font-weight="700" fill="#152238">FreeSafeAuth Personal 图标候选</text>
  <text x="70" y="120" font-family="Arial, sans-serif" font-size="18" fill="#5d6b7a">选择一个方向后，我会把它正式做成 Android adaptive icon 并编译 APK</text>

  <defs>
    <filter id="shadow" x="-20%" y="-20%" width="140%" height="140%">
      <feDropShadow dx="0" dy="10" stdDeviation="14" flood-color="#132033" flood-opacity="0.16"/>
    </filter>
    <linearGradient id="blueGreen" x1="0" y1="0" x2="1" y2="1">
      <stop offset="0" stop-color="#0b5cad"/>
      <stop offset="1" stop-color="#18a058"/>
    </linearGradient>
    <linearGradient id="navyCyan" x1="0" y1="0" x2="1" y2="1">
      <stop offset="0" stop-color="#102a43"/>
      <stop offset="1" stop-color="#20c7b5"/>
    </linearGradient>
    <linearGradient id="mintInk" x1="0" y1="0" x2="1" y2="1">
      <stop offset="0" stop-color="#e9fff6"/>
      <stop offset="1" stop-color="#087f5b"/>
    </linearGradient>
  </defs>

  <g transform="translate(70 170)">
    <rect x="0" y="0" width="360" height="280" rx="24" fill="#fff" filter="url(#shadow)"/>
    <rect x="105" y="36" width="150" height="150" rx="34" fill="url(#blueGreen)"/>
    <path d="M180 68l50 18v34c0 35-20 58-50 72-30-14-50-37-50-72V86z" fill="#fff" opacity="0.96"/>
    <path d="M158 118v-16a22 22 0 0144 0v16h-11v-16a11 11 0 00-22 0v16z" fill="#0b5cad"/>
    <rect x="151" y="116" width="58" height="45" rx="9" fill="#0b5cad"/>
    <circle cx="180" cy="137" r="6" fill="#fff"/>
    <rect x="177" y="142" width="6" height="11" rx="3" fill="#fff"/>
    <text x="30" y="226" font-family="Arial, sans-serif" font-size="26" font-weight="700" fill="#152238">A. 盾牌锁</text>
    <text x="30" y="254" font-family="Arial, sans-serif" font-size="16" fill="#5d6b7a">安全感最强，偏专业工具</text>
  </g>

  <g transform="translate(520 170)">
    <rect x="0" y="0" width="360" height="280" rx="24" fill="#fff" filter="url(#shadow)"/>
    <rect x="105" y="36" width="150" height="150" rx="34" fill="#0f766e"/>
    <circle cx="180" cy="111" r="54" fill="none" stroke="#fff" stroke-width="12" stroke-linecap="round" stroke-dasharray="238 100"/>
    <path d="M180 78v34l25 18" fill="none" stroke="#fff" stroke-width="10" stroke-linecap="round" stroke-linejoin="round"/>
    <circle cx="180" cy="111" r="7" fill="#fff"/>
    <rect x="152" y="147" width="56" height="10" rx="5" fill="#b9fbcf"/>
    <text x="30" y="226" font-family="Arial, sans-serif" font-size="26" font-weight="700" fill="#152238">B. 倒计时环</text>
    <text x="30" y="254" font-family="Arial, sans-serif" font-size="16" fill="#5d6b7a">突出 TOTP 动态验证码</text>
  </g>

  <g transform="translate(970 170)">
    <rect x="0" y="0" width="360" height="280" rx="24" fill="#fff" filter="url(#shadow)"/>
    <rect x="105" y="36" width="150" height="150" rx="34" fill="url(#navyCyan)"/>
    <rect x="139" y="76" width="82" height="74" rx="13" fill="#fff"/>
    <path d="M151 76v-13a29 29 0 0158 0v13h-12v-13a17 17 0 00-34 0v13z" fill="#d9fbf7"/>
    <text x="152" y="132" font-family="Arial, sans-serif" font-size="26" font-weight="700" fill="#102a43">2FA</text>
    <text x="30" y="226" font-family="Arial, sans-serif" font-size="26" font-weight="700" fill="#152238">C. 2FA 锁</text>
    <text x="30" y="254" font-family="Arial, sans-serif" font-size="16" fill="#5d6b7a">识别度直接，应用商店友好</text>
  </g>

  <g transform="translate(70 520)">
    <rect x="0" y="0" width="360" height="280" rx="24" fill="#fff" filter="url(#shadow)"/>
    <rect x="105" y="36" width="150" height="150" rx="34" fill="#1d4ed8"/>
    <rect x="136" y="68" width="88" height="88" rx="18" fill="#fff"/>
    <rect x="151" y="85" width="18" height="18" rx="4" fill="#1d4ed8"/>
    <rect x="190" y="85" width="18" height="18" rx="4" fill="#1d4ed8"/>
    <rect x="151" y="124" width="18" height="18" rx="4" fill="#1d4ed8"/>
    <path d="M190 124h18v18h-18zM176 105h11v11h-11zM176 131h8v11h-8zM210 107h8v35h-8z" fill="#18a058"/>
    <text x="30" y="226" font-family="Arial, sans-serif" font-size="26" font-weight="700" fill="#152238">D. 二维码</text>
    <text x="30" y="254" font-family="Arial, sans-serif" font-size="16" fill="#5d6b7a">强调扫码添加，轻快现代</text>
  </g>

  <g transform="translate(520 520)">
    <rect x="0" y="0" width="360" height="280" rx="24" fill="#fff" filter="url(#shadow)"/>
    <rect x="105" y="36" width="150" height="150" rx="34" fill="url(#mintInk)"/>
    <circle cx="180" cy="111" r="56" fill="#063b2f"/>
    <path d="M180 62a49 49 0 0149 49" fill="none" stroke="#69db7c" stroke-width="10" stroke-linecap="round"/>
    <path d="M150 117l19 19 43-52" fill="none" stroke="#fff" stroke-width="12" stroke-linecap="round" stroke-linejoin="round"/>
    <text x="30" y="226" font-family="Arial, sans-serif" font-size="26" font-weight="700" fill="#152238">E. 安全勾选</text>
    <text x="30" y="254" font-family="Arial, sans-serif" font-size="16" fill="#5d6b7a">简洁、安心，适合长期使用</text>
  </g>

  <g transform="translate(970 520)">
    <rect x="0" y="0" width="360" height="280" rx="24" fill="#fff" filter="url(#shadow)"/>
    <rect x="105" y="36" width="150" height="150" rx="34" fill="#111827"/>
    <rect x="128" y="70" width="104" height="82" rx="15" fill="#f9fafb"/>
    <text x="145" y="125" font-family="Arial, sans-serif" font-size="27" font-weight="700" fill="#111827">123</text>
    <rect x="145" y="136" width="70" height="8" rx="4" fill="#18a058"/>
    <path d="M140 70v-7a40 40 0 0180 0v7h-13v-7a27 27 0 00-54 0v7z" fill="#18a058"/>
    <text x="30" y="226" font-family="Arial, sans-serif" font-size="26" font-weight="700" fill="#152238">F. 数字保险箱</text>
    <text x="30" y="254" font-family="Arial, sans-serif" font-size="16" fill="#5d6b7a">突出验证码本体，更工具化</text>
  </g>
</svg>
