<svg xmlns="http://www.w3.org/2000/svg" width="1400" height="900" viewBox="0 0 1400 900">
  <rect width="1400" height="900" fill="#f6f8fb"/>
  <text x="70" y="80" font-family="Arial, sans-serif" font-size="34" font-weight="700" fill="#152238">盾牌锁图标方向细化</text>
  <text x="70" y="120" font-family="Arial, sans-serif" font-size="18" fill="#5d6b7a">都保留“安全盾牌 + 锁”的核心，只改变气质和视觉识别</text>

  <defs>
    <filter id="shadow" x="-20%" y="-20%" width="140%" height="140%">
      <feDropShadow dx="0" dy="10" stdDeviation="14" flood-color="#132033" flood-opacity="0.16"/>
    </filter>
    <linearGradient id="a" x1="0" y1="0" x2="1" y2="1">
      <stop offset="0" stop-color="#0b5cad"/>
      <stop offset="1" stop-color="#18a058"/>
    </linearGradient>
    <linearGradient id="b" x1="0" y1="0" x2="1" y2="1">
      <stop offset="0" stop-color="#0f172a"/>
      <stop offset="1" stop-color="#0ea5a4"/>
    </linearGradient>
    <linearGradient id="c" x1="0" y1="0" x2="1" y2="1">
      <stop offset="0" stop-color="#ffffff"/>
      <stop offset="1" stop-color="#dff7ed"/>
    </linearGradient>
    <linearGradient id="d" x1="0" y1="0" x2="1" y2="1">
      <stop offset="0" stop-color="#1e40af"/>
      <stop offset="1" stop-color="#2563eb"/>
    </linearGradient>
    <linearGradient id="e" x1="0" y1="0" x2="1" y2="1">
      <stop offset="0" stop-color="#047857"/>
      <stop offset="1" stop-color="#22c55e"/>
    </linearGradient>
    <linearGradient id="f" x1="0" y1="0" x2="1" y2="1">
      <stop offset="0" stop-color="#111827"/>
      <stop offset="1" stop-color="#374151"/>
    </linearGradient>
  </defs>

  <g transform="translate(70 170)">
    <rect width="360" height="280" rx="24" fill="#fff" filter="url(#shadow)"/>
    <rect x="105" y="36" width="150" height="150" rx="34" fill="url(#a)"/>
    <path d="M180 66l50 18v34c0 35-20 58-50 72-30-14-50-37-50-72V84z" fill="#fff" opacity="0.96"/>
    <path d="M158 118v-16a22 22 0 0144 0v16h-11v-16a11 11 0 00-22 0v16z" fill="#0b5cad"/>
    <rect x="151" y="116" width="58" height="45" rx="9" fill="#0b5cad"/>
    <circle cx="180" cy="137" r="6" fill="#fff"/>
    <rect x="177" y="142" width="6" height="11" rx="3" fill="#fff"/>
    <text x="30" y="226" font-family="Arial, sans-serif" font-size="26" font-weight="700" fill="#152238">A. 经典可信</text>
    <text x="30" y="254" font-family="Arial, sans-serif" font-size="16" fill="#5d6b7a">蓝绿组合，安全工具通用感最强</text>
  </g>

  <g transform="translate(520 170)">
    <rect width="360" height="280" rx="24" fill="#fff" filter="url(#shadow)"/>
    <rect x="105" y="36" width="150" height="150" rx="34" fill="url(#b)"/>
    <path d="M180 62l54 20v38c0 37-22 62-54 76-32-14-54-39-54-76V82z" fill="#101828"/>
    <path d="M180 72l42 16v30c0 29-17 48-42 60-25-12-42-31-42-60V88z" fill="none" stroke="#48f2d4" stroke-width="7"/>
    <path d="M158 121v-16a22 22 0 0144 0v16h-11v-16a11 11 0 00-22 0v16z" fill="#48f2d4"/>
    <rect x="151" y="119" width="58" height="43" rx="10" fill="#f8fafc"/>
    <circle cx="180" cy="140" r="6" fill="#101828"/>
    <text x="30" y="226" font-family="Arial, sans-serif" font-size="26" font-weight="700" fill="#152238">B. 科技冷静</text>
    <text x="30" y="254" font-family="Arial, sans-serif" font-size="16" fill="#5d6b7a">深色底更高级，适合安全感品牌</text>
  </g>

  <g transform="translate(970 170)">
    <rect width="360" height="280" rx="24" fill="#fff" filter="url(#shadow)"/>
    <rect x="105" y="36" width="150" height="150" rx="34" fill="url(#c)" stroke="#c9eee0" stroke-width="2"/>
    <path d="M180 66l50 18v35c0 35-20 57-50 71-30-14-50-36-50-71V84z" fill="#087f5b"/>
    <path d="M158 119v-16a22 22 0 0144 0v16h-10v-16a12 12 0 00-24 0v16z" fill="#fff"/>
    <rect x="150" y="117" width="60" height="45" rx="11" fill="#fff"/>
    <circle cx="180" cy="138" r="6" fill="#087f5b"/>
    <rect x="177" y="143" width="6" height="11" rx="3" fill="#087f5b"/>
    <text x="30" y="226" font-family="Arial, sans-serif" font-size="26" font-weight="700" fill="#152238">C. 清爽极简</text>
    <text x="30" y="254" font-family="Arial, sans-serif" font-size="16" fill="#5d6b7a">更轻、更干净，个人工具感更强</text>
  </g>

  <g transform="translate(70 520)">
    <rect width="360" height="280" rx="24" fill="#fff" filter="url(#shadow)"/>
    <rect x="105" y="36" width="150" height="150" rx="34" fill="url(#d)"/>
    <path d="M180 62l54 20v36c0 38-22 62-54 78-32-16-54-40-54-78V82z" fill="#dbeafe"/>
    <path d="M180 77l37 14v27c0 27-15 45-37 56-22-11-37-29-37-56V91z" fill="#1d4ed8"/>
    <rect x="153" y="118" width="54" height="42" rx="9" fill="#fff"/>
    <path d="M161 118v-14a19 19 0 0138 0v14h-9v-14a10 10 0 00-20 0v14z" fill="#fff"/>
    <text x="164" y="146" font-family="Arial, sans-serif" font-size="18" font-weight="700" fill="#1d4ed8">2FA</text>
    <text x="30" y="226" font-family="Arial, sans-serif" font-size="26" font-weight="700" fill="#152238">D. 2FA 徽章</text>
    <text x="30" y="254" font-family="Arial, sans-serif" font-size="16" fill="#5d6b7a">功能识别最直接，偏应用商店风格</text>
  </g>

  <g transform="translate(520 520)">
    <rect width="360" height="280" rx="24" fill="#fff" filter="url(#shadow)"/>
    <rect x="105" y="36" width="150" height="150" rx="34" fill="url(#e)"/>
    <circle cx="180" cy="111" r="58" fill="#ecfdf5"/>
    <path d="M180 64l46 17v33c0 33-18 54-46 67-28-13-46-34-46-67V81z" fill="#059669"/>
    <path d="M155 122v-15a25 25 0 0150 0v15h-11v-15a14 14 0 00-28 0v15z" fill="#ecfdf5"/>
    <rect x="149" y="119" width="62" height="45" rx="12" fill="#ecfdf5"/>
    <path d="M166 141l10 10 20-26" fill="none" stroke="#059669" stroke-width="7" stroke-linecap="round" stroke-linejoin="round"/>
    <text x="30" y="226" font-family="Arial, sans-serif" font-size="26" font-weight="700" fill="#152238">E. 安心勾选</text>
    <text x="30" y="254" font-family="Arial, sans-serif" font-size="16" fill="#5d6b7a">温和可信，看起来更“个人安全”</text>
  </g>

  <g transform="translate(970 520)">
    <rect width="360" height="280" rx="24" fill="#fff" filter="url(#shadow)"/>
    <rect x="105" y="36" width="150" height="150" rx="34" fill="url(#f)"/>
    <path d="M180 60l55 21v38c0 38-22 63-55 78-33-15-55-40-55-78V81z" fill="#f9fafb"/>
    <path d="M180 73l42 16v29c0 29-17 48-42 60-25-12-42-31-42-60V89z" fill="#111827"/>
    <rect x="153" y="119" width="54" height="43" rx="9" fill="#f9fafb"/>
    <path d="M162 119v-15a18 18 0 0136 0v15h-9v-15a9 9 0 00-18 0v15z" fill="#f9fafb"/>
    <circle cx="180" cy="139" r="5" fill="#111827"/>
    <text x="30" y="226" font-family="Arial, sans-serif" font-size="26" font-weight="700" fill="#152238">F. 黑白高级</text>
    <text x="30" y="254" font-family="Arial, sans-serif" font-size="16" fill="#5d6b7a">最克制，适合偏专业和隐私感</text>
  </g>
</svg>
